<?xml version="1.0" encoding="UTF-8" standalone="no"?>
<!-- Created with Inkscape (http://www.inkscape.org/) -->

<svg
   version="1.1"
   id="svg16388"
   width="421.54425"
   height="204.61755"
   viewBox="0 0 421.54425 204.61755"
   sodipodi:docname="logo_small_yess.svg"
   inkscape:version="1.1.2 (b8e25be833, 2022-02-05)"
   xmlns:inkscape="http://www.inkscape.org/namespaces/inkscape"
   xmlns:sodipodi="http://sodipodi.sourceforge.net/DTD/sodipodi-0.dtd"
   xmlns="http://www.w3.org/2000/svg"
   xmlns:svg="http://www.w3.org/2000/svg">
  <defs
     id="defs16392" />
  <sodipodi:namedview
     id="namedview16390"
     pagecolor="#ffffff"
     bordercolor="#666666"
     borderopacity="1.0"
     inkscape:pageshadow="2"
     inkscape:pageopacity="0.0"
     inkscape:pagecheckerboard="0"
     showgrid="false"
     fit-margin-top="0"
     fit-margin-left="0"
     fit-margin-right="0"
     fit-margin-bottom="0"
     inkscape:zoom="1.438"
     inkscape:cx="210.70932"
     inkscape:cy="134.9096"
     inkscape:window-width="3840"
     inkscape:window-height="2126"
     inkscape:window-x="2869"
     inkscape:window-y="-539"
     inkscape:window-maximized="1"
     inkscape:current-layer="g16394" />
  <g
     inkscape:groupmode="layer"
     inkscape:label="Image"
     id="g16394"
     transform="translate(-38.658898,-114.60549)">
    <path
       style="fill:#000000"
       d="m 103.85584,318.24467 c -39.216189,-6.49896 -64.813239,-35.35066 -65.189819,-73.47866 -0.21796,-22.06864 4.55195,-39.64782 16.30544,-60.09258 18.69467,-32.51869 46.456649,-54.35759 82.398079,-64.81826 33.07188,-9.62549 60.43286,-5.85331 72.46845,9.99102 1.33604,1.75884 1.16644,1.73448 -1.64558,-0.2363 -8.00481,-5.6101 -18.86757,-8.25251 -34.56617,-8.40835 -18.06693,-0.17935 -33.83521,3.50144 -52.77357,12.31893 -32.971189,15.35103 -60.454559,47.02439 -70.601209,81.36478 -3.48405,11.79142 -4.43376,32.07946 -2.03629,43.5 5.41375,25.78886 26.11395,45.35331 54.112369,51.14341 8.37321,1.73159 12.19616,1.97557 23.5,1.49973 28.14545,-1.18478 54.05108,-9.78113 100.96573,-33.50379 58.51266,-29.58726 64.71615,-32.46319 82.50444,-38.24895 22.94783,-7.46392 37.46132,-9.85139 57.52983,-9.46363 18.81028,0.36345 26.91032,2.23174 41.64368,9.60518 15.70767,7.86105 33.5215,23.47052 42.88659,37.57961 6.83571,10.29845 11.38703,27.38844 7.29393,27.38844 -0.52743,0 -0.69611,-0.8282 -0.37484,-1.84044 0.80397,-2.53309 -2.78118,-13.53789 -6.52196,-20.01948 -1.70138,-2.94796 -6.76856,-9.2068 -11.26041,-13.90854 -15.10409,-15.80987 -31.88967,-26.30452 -49.44316,-30.91278 -13.92338,-3.65527 -33.47499,-3.64696 -51.22383,0.0217 -12.67915,2.6208 -33.89591,9.33875 -44.10025,13.96363 -7.56292,3.42772 -37.9517,18.62946 -45.39975,22.71086 -45.26694,24.80545 -80.38175,38.69596 -110,43.51317 -9.83252,1.59919 -27.83407,1.76269 -36.4717,0.33125 z m 95.00688,-48.79368 c -0.56935,-1.06384 -1.03518,-3.96429 -1.03518,-6.44543 0,-3.93146 -0.35222,-4.67999 -2.74089,-5.82485 -3.64907,-1.74896 -5.72789,-6.05102 -4.25438,-8.8043 0.82547,-1.54241 1.94502,-1.98985 4.5413,-1.815 1.89516,0.12763 3.88909,-0.21128 4.43095,-0.75314 1.63189,-1.63189 25.10371,-71.586 23.76376,-70.8242 -0.68241,0.38797 -1.99113,1.34811 -2.90827,2.13365 -2.2166,1.89853 -6.22072,1.24638 -6.66544,-1.0856 -0.23573,-1.23608 1.59227,-3.64456 5.48978,-7.23305 9.00889,-8.2946 9.37552,-8.68281 11.71715,-12.40689 2.57358,-4.09297 5.01938,-4.86591 7.7054,-2.4351 1.77792,1.60899 2.50332,1.63569 9.17559,0.33765 3.98478,-0.77521 11.97005,-1.40947 17.74505,-1.40947 9.21386,0 11.10608,0.30622 15.44803,2.5 7.09261,3.58355 8.93856,6.56244 8.8657,14.30695 -0.12558,13.34808 -6.39511,20.51285 -23.81373,27.21414 -1.63965,0.63081 -1.23831,0.93324 2.22747,1.67857 7.39078,1.58941 11.27253,7.19415 11.27253,16.27611 0,10.81883 -9.75539,22.40455 -26.10974,31.00851 -8.46981,4.45593 -25.2232,10.00822 -35.07108,11.62301 -7.38537,1.21101 -7.74343,1.39665 -9.30853,4.82608 -2.10336,4.60881 -6.00109,9.06662 -7.9275,9.06662 -0.83203,0 -1.97862,-0.87042 -2.54797,-1.93426 z m 29.50088,-28.07496 c 17.34902,-4.43714 32.82725,-14.79594 35.51559,-23.76882 1.97284,-6.58476 1.24205,-7.22256 -8.27027,-7.21794 -8.65903,0.004 -25.73468,2.36544 -28.74089,3.97431 -1.44609,0.77392 -11.09601,25.45859 -11.05218,28.27167 0.0198,1.27255 4.34618,0.83839 12.54775,-1.25922 z m 12.59016,-46.4862 c 26.49265,-10.23147 38.56701,-20.73117 30.16554,-26.23152 -2.21468,-1.44993 -4.90272,-1.77238 -14.75,-1.7694 -7.23515,0.002 -12.84008,0.4623 -14.04176,1.15267 -1.38043,0.79307 -3.35988,5.28385 -6.38973,14.49635 -2.41436,7.34103 -4.6,13.90983 -4.85699,14.59733 -0.65687,1.75725 -0.25419,1.66567 9.87294,-2.24543 z M 85.827541,259.07881 c -2.48985,-0.84908 -4.03672,-2.29233 -5.35962,-5.00061 -1.02279,-2.09388 -1.61898,-4.04769 -1.32486,-4.3418 0.29411,-0.29411 2.07337,0.0216 3.95391,0.70164 3.05542,1.10485 4.01437,0.96389 9.01391,-1.32497 4.90054,-2.24354 5.72475,-3.04415 6.64246,-6.45227 0.57624,-2.13999 5.295769,-17.13535 10.487829,-33.32302 5.19206,-16.18765 9.27521,-29.59701 9.07366,-29.79856 -0.20155,-0.20155 -3.07793,1.53553 -6.39195,3.86018 -7.83164,5.49359 -9.58426,5.01193 -8.81689,-2.42307 1.2649,-12.25573 9.51269,-20.06138 26.84446,-25.4054 8.58702,-2.6477 25.62263,-4.60847 32.75564,-3.77012 24.15796,2.83929 31.5133,26.23897 15.65192,49.79368 -13.02218,19.33838 -49.08735,46.10244 -75.34099,55.91073 -8.318169,3.10765 -11.765549,3.42324 -17.189479,1.57359 z m 50.089779,-37.97826 c 18.42335,-16.10977 33.91022,-36.50562 33.91022,-44.65899 0,-5.21038 -3.51212,-6.57991 -16.4653,-6.42052 -11.74201,0.14449 -16.5347,1.29226 -16.5347,3.95979 0,2.40936 -18.87962,58.51234 -20.56872,61.12236 -2.04884,3.16587 9.13278,-4.79873 19.6585,-14.00264 z"
       id="path16416" />
  </g>
</svg>
