<?xml version="1.0" encoding="UTF-8" standalone="no"?>
<!-- Created with Inkscape (http://www.inkscape.org/) -->

<svg
   version="1.1"
   id="svg16521"
   width="431.50177"
   height="209.4438"
   viewBox="0 0 431.50177 209.4438"
   sodipodi:docname="logo_yess.svg"
   inkscape:version="1.1.2 (b8e25be833, 2022-02-05)"
   xmlns:inkscape="http://www.inkscape.org/namespaces/inkscape"
   xmlns:sodipodi="http://sodipodi.sourceforge.net/DTD/sodipodi-0.dtd"
   xmlns="http://www.w3.org/2000/svg"
   xmlns:svg="http://www.w3.org/2000/svg">
  <defs
     id="defs16525" />
  <sodipodi:namedview
     id="namedview16523"
     pagecolor="#ffffff"
     bordercolor="#666666"
     borderopacity="1.0"
     inkscape:pageshadow="2"
     inkscape:pageopacity="0.0"
     inkscape:pagecheckerboard="0"
     showgrid="false"
     fit-margin-top="0"
     fit-margin-left="0"
     fit-margin-right="0"
     fit-margin-bottom="0"
     inkscape:zoom="2.876"
     inkscape:cx="67.107093"
     inkscape:cy="131.78025"
     inkscape:window-width="3840"
     inkscape:window-height="2126"
     inkscape:window-x="2869"
     inkscape:window-y="-539"
     inkscape:window-maximized="1"
     inkscape:current-layer="g16527" />
  <g
     inkscape:groupmode="layer"
     inkscape:label="Image"
     id="g16527"
     transform="translate(-35.498814,-82.286221)">
    <path
       style="fill:#000000"
       d="m 103.83549,290.47087 c -36.339594,-5.29371 -63.445014,-31.06736 -67.559584,-64.2402 -5.33603,-43.02046 17.1174,-89.10765 57.84225,-118.72511 10.018104,-7.28575 28.490214,-15.858397 43.818564,-20.335607 18.81222,-5.494791 40.91818,-6.462646 53.54695,-2.34442 7.01395,2.28725 16.29659,8.21811 18.76416,11.98881 1.39998,2.1393 1.1504,2.08624 -3.40011,-0.72291 -5.92501,-3.65766 -14.32975,-5.9073 -25.84048,-6.91654 -18.80139,-1.64847 -39.42876,2.30347 -59.18095,11.338307 -2.99686,1.3708 -5.65258,2.49236 -5.90159,2.49236 -0.24902,0 -3.48873,1.85822 -7.19937,4.12939 -34.750204,21.26946 -59.444624,56.84248 -64.318094,92.65205 -4.52144,33.22295 8.69098,60.54462 36.13252,74.71762 18.65046,9.63258 41.179894,11.45878 68.556834,5.55708 9.30564,-2.00603 32.77279,-9.37422 34.70619,-10.89701 0.62367,-0.49122 3.60894,-1.80832 6.63394,-2.9269 5.7379,-2.12175 37.75798,-16.87928 39.5,-18.2049 0.55,-0.41853 11.21386,-5.98735 23.69746,-12.37516 51.45709,-26.33038 81.46159,-35.85292 113.30254,-35.95889 17.24583,-0.0574 27.18176,1.56032 39.5135,6.43337 4.41256,1.74369 8.24378,2.9494 8.51381,2.67937 0.65842,-0.65842 4.38543,-17.80602 3.87012,-17.80602 -0.22258,0 -2.08388,0.9 -4.13625,2 -4.53171,2.42886 -6.11621,2.49027 -9.16443,0.35521 -2.11857,-1.4839 -2.29681,-2.19308 -1.82217,-7.25 1.01739,-10.83974 7.86435,-24.30071 10.86018,-21.35088 1.03129,1.01545 0.92075,2.91984 -0.58048,10 -1.0199,4.81012 -2.07192,9.79796 -2.33781,11.08409 l -0.48343,2.33842 3.88348,-1.98201 c 5.38059,-2.74609 6.78625,-4.64702 9.3873,-12.69483 1.24432,-3.85 2.7122,-7.56805 3.26197,-8.26233 1.51158,-1.90894 3.73421,0.4093 3.73421,3.89485 0,3.14208 -7.1339,33.16124 -9.42129,39.6444 l -1.41249,4.00341 4.66689,3.29351 c 14.89392,10.51091 30.57035,26.95603 36.18246,37.95668 5.28584,10.36111 7.29902,21.96948 3.81005,21.96948 -0.57178,0 -0.76814,-0.70742 -0.43635,-1.57204 1.45821,-3.80004 -4.43088,-18.66701 -10.66669,-26.92796 -7.19828,-9.53599 -30.51024,-29.5 -34.44713,-29.5 -0.59284,0 -2.00717,1.575 -3.14295,3.5 -1.13578,1.925 -2.68548,3.5 -3.44379,3.5 -1.8989,0 -4.18494,-2.84327 -5.54711,-6.89922 -1.84044,-5.48009 -1.34236,-6.49282 1.52018,-3.09089 2.32037,2.75761 2.78092,2.95043 3.59076,1.50333 1.29822,-2.31979 -1.08004,-3.86392 -10.75254,-6.98127 -11.97692,-3.86004 -16.57562,-4.43567 -33,-4.13073 -30.53592,0.56693 -55.1446,8.34509 -100.38354,31.72861 -48.19765,24.91284 -56.40127,28.99634 -69.11646,34.40398 -15.82705,6.73108 -39.34037,14.64634 -50.05193,16.84891 -17.80196,3.66054 -30.67637,4.24918 -45.5493,2.08259 z m 71.80123,-62.66531 c -4.74985,-4.74985 4.44603,-13.10859 28.48003,-25.88733 8.00782,-4.25772 10.51503,-6.11339 11.75,-8.6966 2.08312,-4.35729 1.98642,-4.68196 -0.66013,-2.21633 -3.27695,3.05295 -6.22165,3.43204 -10.48415,1.3497 -3.43781,-1.67946 -3.77486,-2.19873 -3.66721,-5.6499 0.23646,-7.58127 13.0124,-21.78927 20.92845,-23.27433 4.16876,-0.78207 8.13569,1.4168 8.65984,4.80016 0.19747,1.27461 -1.97459,7.288 -4.94054,13.67798 -2.91111,6.27184 -5.12044,11.57583 -4.90962,11.78665 0.21082,0.21082 2.75032,-0.54968 5.64333,-1.69 2.89301,-1.14032 5.50152,-1.83181 5.79668,-1.53665 0.29516,0.29516 0.34915,0.6586 0.11999,0.80766 -11.97811,7.79084 -13.93255,9.43842 -15.60513,13.15501 -3.0476,6.772 -9.75463,15.00812 -14.92206,18.32405 -8.02221,5.14784 -23.17062,8.06879 -26.18948,5.04993 z m 20.07943,-9.02221 c 4.35863,-1.86896 13.72057,-10.63945 13.72057,-12.85375 0,-1.01166 -24.62537,13.66078 -25.61505,15.26212 -0.956,1.54684 5.91498,0.15562 11.89448,-2.40837 z m 19.58717,-32.63499 c 2.83868,-3.03881 8.61235,-13.99718 7.80181,-14.80773 -0.70925,-0.70924 -5.91564,2.16776 -7.80426,4.31255 -2.18453,2.48085 -5.86415,9.89294 -5.86415,11.81254 0,2.45424 2.96545,1.78834 5.8666,-1.31736 z m 94.75661,15.31768 c -0.34277,-0.89323 -0.62321,-2.38724 -0.62321,-3.32003 0,-0.93278 -0.93032,-2.49253 -2.06737,-3.4661 -2.49968,-2.1403 -2.08274,-4.05613 0.98042,-4.505 1.42715,-0.20914 2.7368,-1.49543 3.56357,-3.5 2.07124,-5.02191 11.52338,-32.73778 11.52338,-33.78924 0,-0.57059 -0.77511,-0.53565 -1.93931,0.0874 -2.46378,1.31857 -3.54938,-0.21214 -1.95785,-2.76059 0.64383,-1.03093 2.43125,-2.7217 3.97205,-3.75726 1.54079,-1.03556 3.2268,-2.8164 3.74668,-3.95741 0.88796,-1.94886 1.73825,-2.07207 14.03245,-2.03341 12.22767,0.0384 13.23578,0.18962 15.34938,2.30172 1.60646,1.60532 2.23345,3.35643 2.16305,6.04119 -0.15276,5.82587 -2.70533,9.72283 -8.09832,12.36351 l -4.76813,2.33474 2.98928,1.5 c 6.20756,3.11491 5.91052,11.3649 -0.64523,17.92065 -5.01947,5.01947 -14.3617,9.60131 -24.0805,11.81012 -6.07082,1.37973 -7.63439,2.16199 -9.28208,4.64386 -2.37786,3.5817 -4.01459,4.28441 -4.85826,2.08585 z m 19.08611,-15.44958 c 7.78764,-2.73714 13.04932,-6.43691 15.01419,-10.55729 2.53263,-5.31097 1.19572,-5.96796 -9.36908,-4.60418 -4.82004,0.6222 -9.2936,1.69812 -9.94125,2.39092 -0.64765,0.69281 -1.9711,3.73465 -2.94102,6.75965 -0.96991,3.025 -1.97107,6.0625 -2.22481,6.75 -0.67733,1.83526 2.94177,1.55256 9.46197,-0.7391 z m 8.79068,-25.97341 c 6.74236,-3.04575 12.5,-7.49117 12.5,-9.65113 0,-1.89681 -4.12309,-3.38965 -9.3151,-3.37271 -7.60752,0.0248 -8.39375,0.59645 -10.78443,7.84075 -1.20622,3.65508 -2.42035,7.26003 -2.69807,8.011 -0.6224,1.68299 1.7604,1.02864 10.2976,-2.82791 z m -176.143,37.97093 c -2.86876,-1.15769 -5.35924,-4.87481 -5.34723,-7.98093 0.0239,-6.17791 9.60424,-20.77172 16.38846,-24.96459 4.61812,-2.85416 8.97254,-2.47673 9.43849,0.81809 0.56854,4.02029 -0.7522,8.6922 -3.69667,13.07642 -3.47257,5.17052 -7.65806,8.02735 -11.77342,8.036 -2.28913,0.005 -3.27428,0.54546 -3.65638,2.00659 -0.41385,1.58257 -0.0307,2 1.83586,2 2.76943,0 15.07368,-6.30911 23.61126,-12.10687 3.29822,-2.23978 6.23104,-3.83805 6.51738,-3.55172 1.87704,1.87705 -16.4572,17.8428 -24.87904,21.66505 -4.77957,2.16922 -5.37195,2.23955 -8.43871,1.00196 z m 10.60252,-18.96509 c 3.15412,-3.37649 5.66279,-8.76121 4.57754,-9.82539 -0.8131,-0.79731 -5.56782,4.50699 -8.54445,9.53206 -1.65596,2.79555 -1.70632,3.25 -0.36009,3.25 0.86078,0 2.80793,-1.3305 4.327,-2.95667 z m 65.67534,16.88409 c -3.29525,-2.59204 -3.3193,-5.13091 -0.1172,-12.37144 2.93324,-6.63258 13.55126,-18.06565 17.73472,-19.09606 2.83178,-0.69749 11.46626,2.56539 12.98231,4.90587 2.28879,3.53345 -0.25726,11.51503 -5.85059,18.34096 -7.3914,9.02023 -18.88103,12.83661 -24.74924,8.22067 z m 13.0185,-7.06328 c 3.8677,-2.33999 9.66702,-8.64923 11.87517,-12.91931 1.27933,-2.47395 1.37458,-3.42516 0.43157,-4.30973 -0.90576,-0.84963 -1.32537,-0.82073 -1.66843,0.1149 -0.54385,1.48322 -3.29167,1.69192 -3.29167,0.25 0,-3.80435 -10.45252,5.85443 -14.53083,13.4274 -3.47134,6.44588 -0.29836,7.96376 7.18419,3.43674 z m 113.30059,7.29965 c -2.91981,-2.36431 -2.81362,-6.03867 0.38043,-13.16379 2.88665,-6.43937 13.12906,-17.57624 17.07556,-18.56675 3.19542,-0.802 10.16632,1.85994 12.91354,4.93123 4.86539,5.43932 -5.74364,22.57051 -16.85175,27.21178 -4.75574,1.98707 -10.78154,1.80321 -13.51778,-0.41247 z m 10.56538,-5.73999 c 4.34638,-2.06249 14.19247,-12.42732 15.04963,-15.84252 0.67464,-2.68802 -0.45463,-5.16808 -1.2892,-2.83128 -0.54407,1.5234 -3.27976,1.67391 -3.27976,0.18045 0,-2.80301 -4.86795,0.1159 -9.28849,5.56955 -5.80466,7.16124 -8.04917,11.17768 -7.31525,13.09026 0.69604,1.81385 2.02608,1.77769 6.12307,-0.16646 z m -299.864344,4.74746 c -2.24778,-2.48377 -2.08373,-4.09614 0.35195,-3.45919 1.10382,0.28865 3.24132,0.008 4.75,-0.62388 2.45947,-1.02994 3.29951,-2.87725 8.1254,-17.86844 2.96028,-9.19586 5.61042,-17.35766 5.88919,-18.13734 0.33934,-0.94906 -0.72011,-0.65927 -3.20553,0.8768 -4.53733,2.80422 -5.90429,1.84984 -4.52182,-3.15705 2.03964,-7.38695 10.88983,-12.13148 25.091524,-13.45139 5.6322,-0.52346 7.37943,-0.27981 11.17707,1.55859 8.12482,3.93316 9.75824,11.62673 4.64215,21.86494 -5.00023,10.00634 -21.16957,23.29676 -37.551974,30.86589 -8.18527,3.78183 -12.32236,4.21132 -14.74796,1.53107 z m 24.37095,-15.6903 c 2.636644,-1.93547 7.390324,-6.32297 10.563734,-9.75 9.9756,-10.77283 13.79864,-18.6005 9.82854,-20.12397 -2.97466,-1.14148 -14.26658,-0.66027 -15.0885,0.64301 -0.43358,0.6875 -2.88831,7.55 -5.454964,15.25 -2.56665,7.7 -4.9866,14.7875 -5.37768,15.75 -1.03869,2.55638 0.15815,2.17343 5.52887,-1.76904 z m 36.013584,15.06111 c -3.03218,-3.22761 -2.46388,-8.90113 1.80547,-18.02451 4.6947,-10.03236 9.42992,-15.11677 12.85463,-13.80259 1.89412,0.72685 1.74146,1.38203 -3.19962,13.73201 -4.86974,12.17166 -5.25126,13.77854 -3.07296,12.94265 1.97852,-0.75924 0.97191,2.80502 -1.55959,5.52227 -2.52836,2.71388 -4.00613,2.63384 -6.82793,-0.36983 z m 14.59196,-37.24392 c -0.34731,-0.34732 -0.63148,-2.05925 -0.63148,-3.8043 0,-2.35687 0.60231,-3.44725 2.34209,-4.23995 3.6972,-1.68456 5.25858,-0.11825 3.68034,3.69196 -1.30937,3.1611 -4.2268,5.51644 -5.39095,4.35229 z"
       id="path16549" />
  </g>
</svg>
